<svg viewBox="0 0 28 28" fill="none" xmlns="http://www.w3.org/2000/svg"><g clip-path="url(#clip0_0_71)"><path d="M6.13 0C6.36 0 6.58 0.09 6.74 0.26C6.91 0.42 7 0.64 7 0.88V1.75H21V0.88C21 0.64 21.09 0.42 21.26 0.26C21.42 0.09 21.64 0 21.88 0C22.11 0 22.33 0.09 22.49 0.26C22.66 0.42 22.75 0.64 22.75 0.88V1.75H24.5C25.43 1.75 26.32 2.12 26.97 2.78C27.63 3.43 28 4.32 28 5.25V24.5C28 25.43 27.63 26.32 26.97 26.97C26.32 27.63 25.43 28 24.5 28H3.5C2.57 28 1.68 27.63 1.03 26.97C0.37 26.32 0 25.43 0 24.5V5.25C0 4.32 0.37 3.43 1.03 2.78C1.68 2.12 2.57 1.75 3.5 1.75H5.25V0.88C5.25 0.64 5.34 0.42 5.51 0.26C5.67 0.09 5.89 0 6.13 0ZM1.75 7V24.5C1.75 24.96 1.93 25.41 2.26 25.74C2.59 26.07 3.04 26.25 3.5 26.25H24.5C24.96 26.25 25.41 26.07 25.74 25.74C26.07 25.41 26.25 24.96 26.25 24.5V7H1.75Z" fill="#93A2B7"></path></g><defs><clipPath id="clip0_0_71"><rect width="14" height="14" fill="white" transform="scale(2)"></rect></clipPath></defs></svg>