<svg viewBox="0 0 48 48" fill="none" xmlns="http://www.w3.org/2000/svg"><path d="M9 28.5C7.81 28.5 6.66 28.03 5.82 27.18C4.97 26.34 4.5 25.19 4.5 24C4.5 22.81 4.97 21.66 5.82 20.82C6.66 19.97 7.81 19.5 9 19.5C10.19 19.5 11.34 19.97 12.18 20.82C13.03 21.66 13.5 22.81 13.5 24C13.5 25.19 13.03 26.34 12.18 27.18C11.34 28.03 10.19 28.5 9 28.5ZM24 28.5C22.81 28.5 21.66 28.03 20.82 27.18C19.97 26.34 19.5 25.19 19.5 24C19.5 22.81 19.97 21.66 20.82 20.82C21.66 19.97 22.81 19.5 24 19.5C25.19 19.5 26.34 19.97 27.18 20.82C28.03 21.66 28.5 22.81 28.5 24C28.5 25.19 28.03 26.34 27.18 27.18C26.34 28.03 25.19 28.5 24 28.5ZM39 28.5C37.81 28.5 36.66 28.03 35.82 27.18C34.97 26.34 34.5 25.19 34.5 24C34.5 22.81 34.97 21.66 35.82 20.82C36.66 19.97 37.81 19.5 39 19.5C40.19 19.5 41.34 19.97 42.18 20.82C43.03 21.66 43.5 22.81 43.5 24C43.5 25.19 43.03 26.34 42.18 27.18C41.34 28.03 40.19 28.5 39 28.5Z" fill="#1E293B"></path></svg>